<svg version="1.1" xmlns="http://www.w3.org/2000/svg" viewBox="0 0 572.19921875 458.5622588734566">
  <!-- svg-source:excalidraw -->
  <defs>
    <style>
      @font-face {
        font-family: "Virgil";
        src: url("https://excalidraw.com/FG_Virgil.woff2");
      }
      @font-face {
        font-family: "Cascadia";
        src: url("https://excalidraw.com/Cascadia.woff2");
      }
    </style>
  </defs>
  <rect x="0" y="0" width="572.19921875" height="458.5622588734566" fill="#ffffff"></rect><g transform="translate(10 10) rotate(0 276.099609375 155.4375)"><path d="M0 0 C0 0, 0 0, 0 0 M0 0 C0 0, 0 0, 0 0 M0.3154310271470001 6.95124970008909 C1.1452000292451021 4.243875223392459, 3.4839898529057622 2.4362358400496342, 4.70156831625337 0.7435483056900315 M0.02273512150627871 6.227188516830198 C1.8218845321839574 4.206952318714216, 3.1410751948163487 2.3417406926521345, 5.090030655222482 0.2091126836684757 M1.5986926191579212 13.07159796547848 C4.804627882526168 9.153528349202572, 5.712862091842046 4.764011503214583, 9.278350925398005 1.3761307845905186 M0.5640551404188978 12.485861754089177 C3.7663588555633414 8.478848598797557, 6.471151235316596 4.983508010353679, 10.357515378993881 -0.6765296888455986 M-0.5639829980721931 20.13701693797546 C3.4438168973568075 12.605943917010006, 11.389551622468561 4.349744268509527, 16.355762203692873 0.0352997953933647 M0.5055738891893764 18.717521941196793 C3.2376086487315106 15.330494511350508, 6.146337323105043 9.713537901288625, 15.090638027063985 1.2261697423574498 M-1.3289865942486312 22.44846621127343 C9.822740589290065 16.361644183384424, 16.817289631237756 7.165393768306124, 22.56367046041217 0.7340163508593562 M-0.36965660637251396 24.266310979328214 C8.9499908654893 15.188096114704217, 16.47346567996941 4.036868495442626, 20.298025309385622 -0.2230688515887138 M1.9181922814389125 30.200112811986557 C10.424996494704104 19.92921894366043, 18.487672963274044 7.714197031806432, 26.466561481964202 1.3258721282717527 M-0.4675345327193483 30.781066578578404 C9.880686489371097 19.6682186946816, 18.113316451956543 10.169405144160326, 26.023884545687945 0.8674811370682658 M-0.6237237678003034 36.55063827317332 C8.828753037823477 25.32443879116587, 15.327617861977735 19.084240798707242, 31.261013775548733 1.091792205466259 M-0.496594366719993 37.21395782083397 C10.738364547807366 23.605089188560886, 23.503232323376345 10.715819371164777, 31.49796685059259 -0.9463223525077815 M-0.5860902637570149 42.957552252892185 C8.786857854511272 31.63266367282263, 17.50993415181694 20.98475540896659, 37.376791607403504 -0.05713189383032713 M1.0777934772566908 42.2896147254815 C8.670484621438312 32.40315496423721, 17.561010756400368 22.591493120439768, 37.225201285259175 0.526427877238067 M0.7889820598065072 50.25382127486996 C9.987225441887242 33.51387865192992, 21.3021392261741 23.600532921385845, 43.912817234728266 -0.804818841782307 M-0.5285044396296925 49.86300699007593 C10.011923428597576 36.644583911623926, 21.345201744365387 23.61910369895316, 42.640417089309324 -0.8322383595303648 M1.4285404600900264 56.177401666942345 C10.9159718248556 39.72763575385744, 22.17537013915151 29.03708163182338, 45.57619867376077 0.41997913533711895 M0.5802786222424956 53.73022692878108 C9.766011589781359 43.26802148310881, 20.480349668407754 30.184828176326405, 48.266121448902666 -0.31774199025815264 M-0.6321820466687171 62.22141620283614 C13.6302407802809 41.111621416273515, 31.697561493381908 23.852639812958593, 54.11820193170077 -1.7815003846363417 M-0.8624126509671299 60.75991611415188 C12.374893687060935 46.08519789854529, 25.052332369062796 32.40086328045198, 53.36722172866082 -0.3468813257814638 M1.5301465177395315 67.16368704060982 C12.12109282693755 52.71709391262743, 26.71923631416694 37.359498653475015, 59.27327877478601 -0.9278533779758966 M-0.28679242362743906 67.70404831557492 C13.176985729040975 54.04137488946398, 25.55101965591071 38.66471192594492, 58.10880323974342 0.6735945814546191 M-0.05371999347597267 74.14336446332184 C15.960023536809349 52.33450955358332, 36.647264932215165 33.66149239743859, 62.19503896021624 -1.8826860168458452 M0.15133920239269827 72.55580823993681 C16.232465383994942 54.03965552067249, 35.29197270831375 33.241369922480814, 63.21085147177209 0.4030592956139216 M-2.0262829390774897 79.73755561969904 C24.561464002787627 50.28228819143743, 48.16103893081601 22.13855575734057, 68.39527800422921 1.9955619724806084 M0.008669100752896952 78.90747027229247 C19.301322880327476 55.67428725313823, 37.15810782304216 34.7270347162578, 68.10602986090645 -0.30156436074863535 M1.0766143131347405 85.49085746257708 C15.851580778655626 66.4580672705074, 31.773965938806995 51.41847115777927, 73.17994941402468 1.628440667839186 M0.5530343235747921 85.76118141430572 C14.486525883032119 67.87266913230461, 30.47929643228736 49.86286213835342, 74.59440202176812 0.670269051530795 M-0.2351858456015421 90.76553339068279 C25.220784031403834 62.06281840018222, 53.66546767356746 33.56345941833276, 78.58819245584039 -0.9323334070433447 M-0.07880013048200141 91.6603879260315 C25.565911720549227 63.40906406766672, 50.25824481933003 35.31363239074397, 79.00120951551673 -0.18584576999289482 M0.37375793792291745 96.27104618707463 C26.546309985382926 66.65769166972812, 50.895258677183 40.15365883454263, 86.82830438687608 0.2699460756687415 M-0.8824781132863535 98.5006182643564 C23.085002402800338 71.48403680279449, 45.831947058292705 44.818096607063964, 85.83159408177391 0.06680848884414559 M-0.7161911080826258 105.14068675981108 C25.49438142029834 74.29778118940199, 46.91829887597881 47.334839845372485, 89.21676822336951 1.9471518897022264 M0.45202058579286586 103.88736182366702 C32.39825151625715 67.50229813913231, 64.12702855031353 31.886637600053675, 89.92837540669927 -0.06250159940317701 M-0.8604249673804318 110.00820288261892 C16.835920490287364 86.32734744744536, 39.91463101350575 63.867641277752654, 95.61422497252047 0.3411466128928282 M-1.0215468470847284 110.49394767651827 C34.24439408411498 70.65339811538486, 69.62056399976514 28.87021571926229, 96.12677335491449 -0.4358868455710194 M1.6298223672292593 114.53733213333389 C21.007145973741697 90.09289908941196, 44.13183711191371 65.03164740229842, 99.36450140056664 -1.9260407310326642 M-0.5070230472975013 114.87232751207402 C25.268279550557846 86.09739722989781, 51.56899409653292 55.566055001027664, 101.41218573757911 -0.15540880210446772 M0.4265026619841876 120.27197853568276 C27.53487163451322 93.68091461199351, 51.99612118296778 61.38599400801997, 106.7305822647078 0.9226086857614533 M0.6919272963141623 122.58450227788916 C23.18643633842487 95.31281859002084, 44.672384244820236 69.28528196851784, 106.5749105443148 0.49299359516030705 M-2.035333354906392 128.165745497724 C38.32613338747219 87.37646848315444, 73.78899576944896 43.271681428138564, 109.83363808118172 0.6692801370019694 M0.1704806443813922 129.01330511835027 C28.881565414724967 95.08132820591669, 58.103581258869134 62.927503685218284, 110.3679237112812 -0.8290693312217812 M1.661786919766783 133.6585645525161 C38.646702186047904 87.8257424337858, 77.74243694815685 45.40353549433917, 115.43293832819762 0.6308582807473826 M-0.1392724799646743 134.720280115344 C44.9995485757129 83.96290462428325, 89.69940907395373 32.26875887370052, 116.5055423241094 0.2983449381358909 M-1.8629191227585693 139.7533240987859 C49.40999526817779 83.61710229760155, 96.88298086206717 28.79051232999778, 121.14517435896477 -1.2644440999438586 M0.46974542193555635 139.80356102892526 C45.95745705630666 86.56939656248696, 91.09852414600071 36.69454567783096, 121.10149753093054 0.41138986011989687 M-0.008576100282667198 144.54540233936902 C31.647690839323502 108.35193172569022, 65.12589957836865 71.77273204613167, 125.66378231472089 0.599542643655063 M-0.5217379727962594 145.70865423575785 C33.36194465791263 107.98700378867312, 66.46769813789741 69.84748531751303, 127.10700745540424 0.520308569785179 M0.6717300563102565 153.8996815232534 C43.59063222097676 101.59622822366597, 90.78452191645785 48.93959701892944, 131.64317068269784 -0.8515638826779848 M0.2700852175007406 153.260396149111 C52.348986820045795 94.09525698326087, 103.75902387571774 35.20767197564196, 132.33410749323733 -0.07710073075913662 M1.4068878783951648 157.9566816714186 C29.36988839688599 122.931094701703, 61.038121829298994 87.969135137734, 136.28175721724557 -0.8407746903084361 M0.2130153094103417 158.950568205013 C39.777022373737374 112.90122660955709, 80.43045476422056 65.94482800207986, 138.37865174911153 0.32063301036715747 M1.5574138015382277 165.73049561651825 C50.55645142998409 106.98488024867363, 102.15369440256305 48.80327297309587, 142.99983633318593 0.159888924325176 M0.9868972728746563 164.4081668972559 C45.10549090059426 113.72921448647689, 90.43429696845394 60.064000597328885, 143.96179041283798 0.7810894096421815 M-1.3380649981534445 171.82505878735117 C47.05734056577781 118.6818002873972, 93.5327775888065 66.04341228588608, 148.75867066541505 1.80437279685755 M0.2679595408275771 170.56897994024328 C47.858002639710485 114.22616060252723, 97.13149249764673 58.929695177508194, 147.43454697389365 0.4444257671140862 M-0.046532108298178665 175.13584129651258 C52.46608972647051 117.36970337065135, 105.4581975797329 58.32244440079003, 154.91900293510375 -1.2814366032801225 M0.2580975895088096 176.08836333764404 C48.15988822422046 121.83413459225986, 96.97117434682927 66.18682810976878, 153.0319437400612 0.3660098970962648 M-1.5457788684138927 181.69703483842628 C62.38514202908238 112.60216108364857, 123.94581617017165 41.13076977878261, 158.6961571615231 -1.000537074828101 M0.13828193466471805 182.5710906460493 C47.08276275635129 126.30004328777265, 94.91482824067586 71.05810980509337, 159.0661423336299 0.9536112918244102 M-1.7752569259941569 188.29877246903308 C41.25090649070762 142.4268619766791, 78.33682418740203 95.54748013113577, 163.58519367023868 -1.5752756067381957 M-0.612221122481662 189.36950462067978 C59.43607360543055 118.87661639133171, 120.63442096725812 49.75792205485814, 164.57350685057983 0.37023344051140206 M0.5730069340688839 195.58034107772008 C36.308249749368954 155.467220688781, 70.04407437654531 116.12113118899393, 170.75061444233722 -0.8993271976017041 M0.28872807136608636 195.11912675097108 C56.64727300380251 129.96131468770005, 113.16053331908054 65.72514717979594, 169.37036996110825 0.5947425981944326 M-0.6831980875527564 202.74599586706051 C63.18252049131412 125.83305222492997, 126.75070109056156 53.0413886084937, 176.50139027282535 0.6721787521725662 M-0.2593729420160602 201.71292246892114 C68.8709496346488 123.58144768337502, 136.3555243840953 43.631810595695455, 175.39874089098822 0.5918360926294579 M-0.07289889925005011 206.31979153330872 C56.915269002896316 141.24889017991995, 112.52109928879214 78.05476338114786, 180.22978746962505 -0.843919288699587 M-0.12514828112399634 206.6867174960486 C38.31957827941209 162.8804155731772, 76.89978102728007 117.83177804707547, 180.28220897661686 0.8847599124204427 M1.486021762544819 214.39810252098542 C42.15275072889973 167.67403016441833, 83.73091116690394 117.11091794413771, 184.7423335977616 0.40111564613122674 M-0.14340121165346945 214.01050699540264 C63.875849286242655 136.9165899320183, 129.67201325102496 63.258937296718926, 185.3090147888376 -0.019823523228116757 M0.22467684617365935 220.27889305559978 C66.06136402159487 142.19718531111963, 133.16761725089427 64.57350152061505, 191.0953067303393 0.16754794323684122 M0.050746254715090644 220.347456759029 C63.536310096890865 142.9979172614696, 128.75012946556083 68.67891568792375, 190.4069006872375 0.4126829775325171 M-0.11456854928538668 225.5203179582981 C58.669211873703475 158.6221651331488, 116.98423232329382 90.57284463130014, 196.53857878552589 0.4113963135655341 M0.4260592331325059 225.17591665239493 C67.18179260830094 149.90980940846129, 133.13718852372395 73.68833367700745, 195.89855148912304 0.4659604522404497 M-0.8707370124957023 230.52664862069648 C68.66819553755967 152.02710280223238, 136.82694602238513 74.63460721203408, 201.51822522641578 -0.777363449899363 M-0.3647529874492503 232.15764003798748 C78.4291205385729 141.68435217732176, 156.3262028473894 52.54010376860503, 200.62944297475477 0.39055222051170274 M-0.6372026841273721 237.22601999398873 C57.482690145559616 166.83563623153728, 118.27385382329459 98.81459830759836, 207.46313888909674 0.14448508040322305 M-0.15977649938178107 238.07687184841836 C56.45535296149565 170.86296238089355, 113.31220445917332 105.8043624595521, 206.69572688058963 0.0710224345869156 M0.9987272299686779 244.1334832119787 C82.81736106618442 147.6910631111891, 168.70965007066084 51.005073556082436, 211.80971226947563 -0.06731941035583322 M-0.42179551761940587 244.1564111875811 C45.5912617351889 191.26951678932235, 89.49618784023302 139.71141749035095, 211.63828905798198 0.7179393804884023 M-0.16077442894575292 249.03365684103312 C55.01442739220987 188.92363362762558, 107.61627706098712 127.62686245468073, 217.59817931228565 0.33410613106799325 M0.08357192999885421 250.71294785616504 C53.004919835646035 190.6508531482051, 105.09024214414268 130.7643555239486, 217.55596441685896 -0.27173661069493715 M0.5665749062327878 256.99117555068676 C48.53980976186994 197.6023543164113, 98.5248741240742 138.92458692958922, 222.72106770624734 -0.7759145059548203 M0.1831169256059626 256.0175975132055 C78.97767062131214 163.20619088844262, 159.82987271739125 71.20328196059549, 221.93761287878937 -0.4606987301106122 M0.9456488273642141 262.8105767726347 C56.73317564854906 197.15030195270464, 113.5404068954153 134.07357047068282, 229.45949755910658 -1.1508578795949949 M0.06156863253031011 262.7346743452483 C76.04096353666162 176.87806542551888, 150.0862139775054 90.58488034344889, 227.95496402334035 -0.5066708504993932 M0.8731191614626854 268.0140839455609 C49.3640052589393 210.62246100428632, 96.82206740688319 152.68635677958665, 234.06426679595944 0.11892548298142393 M0.024954197378265097 268.01530262650607 C85.77506502713227 168.89748561229143, 171.68035935014038 70.82608194531683, 232.75277897279696 -0.6308663926085689 M-0.2077347790543635 275.12416193395376 C78.36404443500533 185.31438085165868, 156.532215155585 97.46336018631314, 238.06418948294348 0.7805785293367017 M-0.4821394507030573 274.8532759798539 C89.17112935246413 170.75607722396992, 179.42634295213668 67.03798767411283, 238.29619451678724 0.07646160238406619 M-0.022854913836485385 280.61980535438454 C87.02259771104224 181.80576780809022, 171.69984325894237 85.18488312019691, 243.65340110239666 -0.5038407874076826 M-0.053744667600580914 281.0481622077292 C58.673959578202414 210.9589814049285, 120.19139748657986 140.42161645323225, 244.4351665593132 -0.5191707689019338 M-0.24510476678335458 286.50495246305877 C84.11292797228619 190.14474598111724, 167.88241100198394 94.46919244814804, 248.1299750295258 0.9191677030652596 M0.541757165345235 286.64222704220737 C66.95593266212826 209.6366042143709, 132.47754433009428 133.86198034363724, 249.21419913542974 0.4490845927597067 M0.30208870667100785 293.0544942654531 C72.80895758856411 205.81740718182874, 148.2530596868006 118.70366162918509, 253.62494606685746 -0.09627760134291817 M-0.19609280457147377 293.05467147961923 C54.4017208348495 230.0330506237199, 108.99002474301248 168.02203765884863, 254.85229555406323 -0.5383182921471705 M0.6327120045560095 297.8758123779929 C76.98528987154343 211.65485446998065, 152.954825892726 124.97039618960504, 260.55848484430726 0.2338415183358567 M0.20239900172515773 297.9581967299445 C101.90997214590004 178.75093816857097, 204.25298618604978 61.341324767893774, 259.704698345229 0.5282805115220213 M0.8319897102672137 304.614238250391 C84.96931983350804 207.10463984247656, 169.62211818663906 110.25092392041398, 266.1620145019558 0.5354103280736202 M0.19546336709642517 304.2519366532588 C92.61203637192155 200.84076673591983, 183.5262330497442 96.37108291269814, 264.97985833359945 -0.2664979995560446 M-0.22007027865391354 312.2859105268924 C62.43255628042019 240.3636022470563, 123.79760565035322 170.91857568182817, 269.865755123433 0.9948176926163352 M0.292063039677251 311.2876924905337 C57.355963170434535 242.5859686922081, 116.52416252009874 174.66312973072263, 270.24780227885543 0.09068108651050652 M6.384630907077539 310.06464582696725 C102.26197201938773 199.89276133049415, 198.557178868711 87.15139042918756, 275.94883977458574 -1.0245940559698727 M4.931051167880077 310.76439342625855 C91.93190683670699 209.9771108332712, 179.08123658959627 109.69331937305634, 275.575215116236 -0.2377268571389704 M10.905504018052003 312.2092233150064 C97.09105733883744 213.7791072652365, 183.73405034461405 113.58684185888009, 280.81669094534186 -0.29247844806146606 M10.401851467264406 311.5300466468864 C97.02719537446087 213.47942046004476, 181.4270565891007 115.54850305168812, 280.38867732664136 -0.08237153979897516 M15.31000813844679 311.0647377516337 C115.27939227525445 197.01772485465622, 213.28231551819687 83.40415076012539, 287.1702105300349 -1.2513252706909193 M16.134749370799053 311.2744478277262 C100.50971404765592 214.92789791360525, 184.05383194432534 119.12269202142198, 286.73249868171223 -0.1910212560825484 M20.6740848403835 310.3576513769577 C127.15346441624165 186.43119310065757, 234.1585756018912 65.26315145249684, 291.1818425359427 -0.6177272564058932 M20.98185408728775 310.8551614919308 C103.01315148794782 219.05793970509436, 183.83002859339211 126.10364862503779, 291.51201551642407 0.13107915974145773 M27.066996240851864 310.8564414437897 C123.23346888815325 198.62046243374408, 220.690332743424 87.5267529962983, 296.59233354021126 -0.6285077500512766 M27.047794920792974 311.0441512812156 C94.43031050844837 231.50957161188637, 162.79040179447665 154.26042973066993, 297.43024824851136 0.3144510044663378 M30.59179219478595 311.387275434426 C90.08627755012864 247.7491647478668, 146.4055880231709 182.15990593361158, 301.9121766829309 -0.3724718919872587 M31.383635926212182 310.96412791013967 C119.30043987751544 208.37719716616337, 207.38355788789167 107.50436445641546, 301.9487540340435 -0.3052083397705385 M36.38884595198802 309.7998057938651 C131.45630410478267 201.83845621491136, 227.54269694021062 91.99088188309236, 307.9590233240601 -0.2907358848712287 M37.47014582870163 310.3013034368244 C140.1097567404118 191.91319977280324, 242.98463154517725 72.34695006050298, 307.13105948684836 0.27234126523037294 M42.557623750204634 310.5421939465909 C138.70651872086134 199.50576460661472, 238.87503370539372 86.69309403022474, 311.6184758365018 -0.06782697687587544 M42.538813479252525 311.0214136172355 C147.8726413947369 190.8865041813669, 252.39597452164404 70.42059643895635, 312.9764125340892 0.2287190680126921 M48.78732127205056 310.32175782978953 C116.77571075049869 232.56887125516153, 184.84364908923482 154.16268702680057, 317.7543984630268 -0.945563128471088 M47.96189297411487 310.83667377590046 C135.49793211536883 209.19594939573727, 223.07800928638213 108.1650067868016, 318.51741673568796 -0.03403550181778667 M53.39733083808481 310.0528951101321 C160.03145792325057 189.53720110361334, 267.01396921926613 67.93803414754828, 324.22391170935055 0.7587462043579445 M53.13276791037356 311.481149960191 C108.26297331378912 247.00058656993576, 163.98359198106166 182.1483709402728, 322.8063567399013 -0.0037272793111938624 M57.59497866373478 311.4499787169926 C153.07195493341894 200.01596640947977, 250.73155703218356 88.82067145686372, 329.41480400105655 0.406172403328833 M58.20342290537249 311.0844900110411 C162.13836652783647 191.27540588146832, 264.7726253923892 72.87930998101301, 329.29250700274497 -0.671537893455485 M62.5159920523719 311.4836832592294 C136.1652837301625 228.10623890707168, 207.13930888900168 142.51419200486808, 334.75212287667256 0.2637653046439168 M63.430931852290236 311.3540699172288 C157.28294891224368 202.53929249551143, 250.21854350921353 95.73544650878857, 333.6897596435695 -0.08294141289451187 M69.10933745223603 309.90612855840396 C135.92750193539362 236.15477808623518, 202.49756222422565 160.58600513823262, 339.1168890445947 0.6313247322082217 M69.7284798395644 311.0419496860942 C134.201633522827 235.35632418858515, 200.5183729223245 159.2450771338782, 339.28618116448433 -0.4173608752100655 M75.17768764951117 310.26655486556245 C157.4543814506358 214.23908603031632, 242.56347095602882 118.57545124434267, 343.5391371761632 -0.23614908558835618 M74.73217700646735 310.9405700978217 C155.2431115350047 218.13962225674095, 235.87973307599395 124.71387906271995, 344.8116403059337 -0.2594095326396909 M79.63453261150734 309.94300384031584 C158.13597927673928 221.8238261757345, 234.84225450937637 132.8870346336688, 349.3330207338808 1.0602679384217484 M79.91164528710732 310.62960452721927 C159.57734813985346 218.6263463339686, 238.14311523138633 127.20863378460406, 349.2515855698776 0.16877194110136534 M83.92067794844792 309.91312093831084 C157.97936438920394 226.119705776837, 233.95522488863367 139.813342522653, 355.14014690801775 0.4560521615909267 M84.44930254311976 311.2840983426921 C138.9940851543767 246.1638110914577, 192.81118024314176 183.43498750622692, 355.0239258565838 -0.31387280719896105 M89.04031020398031 312.08310298329354 C183.73488557599873 201.94216864481373, 276.90564128045423 95.07172570855434, 359.432294557487 1.1779077356469183 M89.51038489986986 310.99157466780116 C167.48362199882143 220.0155612106807, 246.79508632980668 129.87985382604126, 359.6665961926288 0.6483568652935174 M95.88802333062742 309.9891342241543 C165.25310725069195 232.2324984014735, 231.98245913643646 156.10950562558483, 366.30403603493147 0.13817231161136773 M95.40144590121224 310.34486692381296 C183.43893870443222 209.52766911971094, 270.6591237265634 108.24916959833364, 365.5785134938595 -0.10393977397475135 M100.1003249591045 311.1743552799082 C174.54934619681268 225.95344080374224, 249.88896344297245 142.96790338610134, 371.5787093812224 -0.10678403915713608 M100.37193323290364 310.93231343817746 C177.14632142615898 223.07655099379218, 253.8254137578905 134.3985853239638, 370.6167815847042 0.30670543252425575 M105.49696423999508 311.5806132072726 C206.38036107622565 195.84186081815935, 306.75579928317416 79.75481089130766, 375.8124033820997 0.8613423674026828 M106.52167198845973 311.1990385444067 C207.653856452209 196.76915466599047, 308.31914380666785 82.25819101140067, 376.30098368485073 -0.11069873911937707 M111.28237583682696 310.77605911744996 C166.1890149368098 247.66971595210612, 221.65124394228013 183.29928536350434, 381.3344247612474 0.15201444483697035 M110.94816692473105 310.8960369363568 C196.7840372115113 214.04332045146728, 281.0272899602544 116.53621698363246, 381.6935466648213 0.059768260028679965 M117.39664198299616 311.82771810934537 C196.59333035195115 214.12350853048753, 279.3515291833754 119.40694746683128, 387.7592370372178 -0.9090021306054407 M116.68325998132703 310.5598659389461 C220.5206794281543 192.20344911106525, 322.83539170849093 73.59847503635974, 387.2304373653973 0.201119422464818 M122.64918447484297 310.2916916863486 C195.07654544168525 225.8604613388646, 269.19863496690203 139.56165164462956, 391.2133773165074 -0.13686290319096112 M121.65398293619194 311.58883066243686 C199.27589935121514 219.2748430807132, 279.18309463450686 127.05638007075048, 391.8812012531949 0.47270733852955993 M127.88327712857594 311.57732448955227 C225.27816842829708 197.61034147319174, 324.842084720121 82.51871379252663, 397.338991950481 -0.08119870448331515 M127.43276532502895 310.25655227315366 C191.34387592202083 238.3529248350123, 253.61519852554676 166.4599416516335, 398.0728835400891 -0.34992073287450987 M131.92328817334786 311.19160831453377 C213.85821055979764 219.87623254564764, 293.51645992541114 127.59537312742734, 403.02915652844763 -0.4510916365613282 M132.57118629687614 310.90685074776525 C225.3087668089024 206.43348109803642, 316.8678522351555 101.57715479057961, 402.2907190387898 0.12067388999946671 M136.92564230817982 309.916899244573 C192.57268955036608 247.0247547747895, 246.57630190811932 184.81662433208555, 407.24496193458464 0.664270061198747 M138.0705081335304 311.22151474400226 C227.46790321426025 204.7697590638316, 318.3216129120838 100.22490563350327, 408.7478516822659 0.25755238246029555 M142.139613495037 311.54691846743503 C215.9870228334495 224.92941234995894, 290.23274190975377 139.76887614124428, 412.42888074101353 1.251918428905585 M142.90187770512352 311.04228515493963 C207.73675016528182 239.02429816377568, 270.7538194513443 165.11443253816432, 413.42667557932094 0.5083199676610849 M149.25828701575304 309.64062460858736 C230.961614842009 215.79525219081478, 311.96494119391406 122.35605682808071, 417.8302564647241 0.7137997193704615 M148.38363518954623 310.75732257971447 C243.46705745252856 203.47203784455206, 336.14415903227433 96.77920529853141, 418.8417793340176 0.14175618731691897 M153.99290266510565 311.4956097479822 C236.25452692112322 214.74282345060854, 318.7474649230765 118.721289877434, 423.10511956065034 0.8824496148894658 M153.70151552802395 311.37739247780775 C253.1537673459924 194.52466143394037, 352.6361784843876 80.20422880356597, 423.5474111012532 0.05706205598707073 M160.1696152077409 309.5968245532748 C237.63344369446133 218.47370048094146, 316.58801653956937 128.2151430671182, 430.3874750785946 0.4274391604614307 M159.19273234454118 310.7358830397628 C223.44523221201052 236.4642182835977, 288.51777185903654 161.6253837849674, 429.2478493061841 -0.4695096682070687 M164.74448877124908 309.96287349660497 C237.528374823257 225.46370416299303, 312.2541523222753 138.93142540017195, 434.77042105630335 0.2439491805700305 M164.0526290014172 311.2175639414672 C217.2064278760014 248.6868045550218, 271.6488677860333 186.68351874434757, 434.6777668998013 0.11781747070010892 M169.71380770308875 310.1540887878152 C234.00505440007092 234.99346904945696, 299.4775111837135 159.41175975299447, 439.49613377639145 0.045665812401455785 M169.6187625187302 310.49248021487017 C234.49860387918412 233.99664485663993, 300.08972656339057 159.79558886777835, 440.5261524783551 0.21452429723610256 M175.87486936366267 310.12722879123294 C272.4882880581107 199.9283273009944, 370.2510897659063 86.76642260246318, 444.250536559418 -0.6195442773731189 M174.89110502989314 311.4311606022655 C279.07466003013155 191.758046025648, 382.92682989157845 71.49507553848586, 445.5031241389302 0.05149275877277046 M179.43114778324198 309.9215983588883 C274.3069738626596 199.84384245300652, 370.61375136867355 90.2922931299754, 451.60748662081016 -1.403839159379861 M180.9093525010781 310.65206182700905 C263.4594348631315 214.2462581360465, 346.8746305537247 118.9769824119887, 451.2638505988706 -0.46513900375599626 M185.43113285504177 311.7679488472959 C271.23010848425855 210.84588751790218, 356.9379520758156 112.2561284833119, 455.3234438639395 -0.14372642476018124 M185.1799013867917 310.6232265478005 C253.28682911772177 231.4953136525261, 321.49388024430675 152.33253686976929, 456.28891545135474 -0.03795430157217475 M191.25479639214566 311.2152496506735 C263.3025109558961 226.79090134774682, 337.25066613798606 141.79206526619757, 462.0868049370457 -0.6400668519528039 M191.51928134929963 310.39617722940204 C251.87728565788743 238.05396087479707, 314.9855931325527 165.18054455141814, 461.90146308482025 -0.3248524273356806 M195.6795321205816 310.17183621772347 C251.47529787809592 248.54686196549127, 307.19207557550885 183.87806767055213, 466.6938744263131 -0.7101511899115541 M195.73533351420258 311.14822529691986 C285.79639797231874 206.343304906964, 376.26661714540256 102.53544965486402, 466.1475629385397 0.14987289913784427 M202.0455404832694 310.21765918037573 C304.86338469336596 190.55348887191496, 410.1864036036284 72.30349936858293, 470.954338943297 0.7883329802074591 M202.03081958451307 310.1949985123253 C291.620292982463 206.13726413445923, 384.12856686963937 100.36538110873403, 471.34357796133474 0.21678867945830702 M207.63936049797752 310.3451451929453 C277.09857912278625 232.78324700075854, 344.9477696846891 155.50265943276221, 477.4594373654842 -0.9936571636475219 M206.49401252296573 310.91085379972105 C269.3034688396212 239.78384534140363, 332.2875677593085 167.15915566859007, 476.86476497069987 -0.5280273983744876 M212.77039545549582 311.9496556008224 C295.3295923927365 215.6602169982079, 379.807904744821 118.34518661457683, 482.2366361692588 1.1301510799679484 M211.76047018898288 310.9273973543142 C318.00121130473104 187.39235816669165, 425.6013416261902 63.840833492292646, 482.3169901361414 0.041671269605585315 M217.80327738742483 310.61520980089114 C273.4046132768669 248.14360551438, 326.7571668270005 186.66976394396946, 488.2038442628981 0.7579580007116031 M217.05945759267095 310.4720036375519 C310.82970993754753 204.4527761873687, 403.2699825787444 97.39986435383896, 487.9799845868002 0.26145627786348546 M221.29654153932333 310.8433493348227 C278.9652560196913 245.35650427374543, 337.9277961777366 177.5111449214243, 492.3641002771173 -0.3065259824017188 M221.9380930686147 311.3983101593059 C303.78881426756084 216.18310644721097, 386.58068506424445 121.02011687710385, 492.51315530843294 0.21648185384911056 M227.97633145161876 310.2830174069907 C326.76840445763094 196.73112238777298, 425.63788165190755 83.84265038375227, 497.7172347625001 -0.9286360126544915 M228.341933171658 310.31569902301 C324.0276246465145 202.83811495339242, 419.5558494988522 92.23720999717517, 498.4262866945554 0.12836263107442003 M232.6581685526827 311.6784821012539 C312.0398181156386 218.1268339960113, 391.72159561270473 126.57147765137198, 502.64776378257415 -0.7203023788442905 M233.40211213247963 311.2375672799423 C289.10643473432634 248.5776899639607, 342.702525164196 185.9993915045763, 503.22684280201815 0.431358803395647 M237.62338701575482 310.71643351417356 C332.88287539457554 203.41976005573838, 427.935370660828 94.58145646719878, 508.4623005707355 -0.16748058206611835 M238.73216217701696 310.30248439994295 C324.02104737999446 210.63330565091871, 411.53654322625147 110.68536819777646, 509.2634000704305 0.1588435957309723 M243.1002521520192 310.1603565717959 C323.8059516836342 221.20634683583327, 401.4282762173202 129.74745265885431, 513.1503483233245 -0.7077009189300506 M243.2151529820425 310.60891222569626 C338.96350569602737 200.09415605084658, 434.01752829870395 90.5858905630539, 513.7797247777369 0.29916281834287917 M249.33524806752814 309.8840777628696 C344.3775978503056 199.4277733251221, 441.07267695535273 89.08070169625184, 518.9217118565497 -0.4845993483436184 M249.02083759458745 310.2160368434486 C302.6342184547638 248.23771313421585, 358.4795385772431 184.55180133323904, 519.8514305596402 -0.004347262444229977 M253.63354485627823 310.07388995562826 C358.9989102278467 188.83255169618835, 464.17943163574165 69.93964590303193, 523.7808407995639 1.2016337252706881 M254.39279188751814 311.5123645372904 C327.78574861086827 226.85473925968753, 401.00961155035117 142.85574997804594, 524.253606265179 -0.0975003699615366 M258.98963505713414 310.0078975310083 C331.07938500291357 227.60579414478894, 403.9849858699446 143.11723487628674, 531.2506908513878 -0.6060758148071619 M259.66556047895943 310.30977845987445 C352.1890870078308 204.11473275734664, 444.19419896678164 98.3506674906564, 530.5839230761495 -0.5220175464783883 M264.56845204690495 311.2581411994308 C343.92205189746454 220.652108082177, 423.6994145829195 129.48943936436982, 535.3877181739873 0.8923614191875852 M264.42469538787134 310.6782585866973 C317.72523871656983 248.73018477786835, 372.72338714009027 186.07426085220666, 534.943812762684 0.3403324010800275 M269.9631072972681 309.9105943340195 C369.091712061958 197.91886344912106, 467.59291914877974 84.61982142336208, 541.4379886491956 0.07582265272271105 M270.2442275534727 310.7602639868181 C367.0263329643496 201.7213321544995, 462.32007123789157 92.80062000391082, 541.2480244026732 0.28130117185092607 M274.4218071678449 310.69953578738307 C376.6070289316069 195.21608151446014, 477.4695246280041 79.13149150111381, 546.4792730717903 0.6889193657504699 M275.6602558908171 311.04610397713975 C335.7295777101587 243.02993198896638, 395.1005231573523 175.5120397725659, 545.8125778373422 -0.09830507468463015 M281.10559016312527 310.4817478248327 C337.0374188748492 246.0577461290005, 393.7192856136354 183.38259209216264, 551.3313580064179 0.40942002592580184 M281.0948684102171 311.1205683931273 C349.8761238440584 232.13474065342538, 417.83714480660325 154.3238903101499, 551.571095590676 -0.09538304798351696 M285.376040939796 310.1768309367308 C370.79510378262677 212.06247824817626, 455.56737756643037 114.0963987315561, 554.5356939930517 1.7755112122455765 M286.01501845294393 311.3822688992757 C377.3679217017956 204.71134382114673, 469.90715646043896 99.60201710096426, 553.9697058238743 2.342580851788892 M292.22059286440543 311.42419061414375 C382.650423011899 205.07316515041683, 474.29345602803863 99.16834593525144, 555.9913007218113 9.10140827189537 M291.67210133445667 310.8751292584574 C379.05522051863085 209.98929772777754, 468.1190971806292 109.25998702512628, 554.5400984112227 8.177790650532332 M297.9100843692486 310.8244233389039 C365.0497474618954 230.4477280234289, 433.4377556404851 151.04942655999932, 554.4676425362857 14.922783450169229 M297.19898932088904 311.19455677611893 C356.75786027052226 242.60114435698458, 415.3832540403925 175.30852690511318, 554.9143269869808 13.863602153074208 M302.94293328543984 309.9830220676345 C358.3917287029733 243.31944388104677, 416.4340031923779 176.19851338078774, 553.5034337671106 20.887064892469628 M302.18749779347354 311.0769741625429 C374.2583173143183 227.0603329811928, 445.60280834588696 144.92553833774556, 554.7464126642668 20.84527991948071 M307.1106468284451 312.1191085116505 C380.229411278183 228.34812397092023, 453.76023131823507 142.46376674388262, 555.0962409929061 25.536091969555038 M307.4909371094969 311.28642676163304 C371.4345476468732 239.5285752720873, 434.25443884715844 166.7870642111058, 555.0063065551004 26.644815850164175 M313.8623173775804 311.3806646784675 C380.97502229068385 232.6414074693682, 450.95785290867997 152.62235591029287, 555.1541403374626 32.891081751014504 M313.12525431612175 310.3920458089152 C378.0098690795727 235.62901034118872, 442.0374789057475 160.97311104682765, 553.9554897873977 32.91320756455121 M317.66822517964147 310.10275160755833 C390.8119020803229 223.67484395590017, 466.5613071609087 138.6689134037927, 554.0818525986065 37.92621732455328 M317.94124518803005 310.94858773538334 C377.54507343703625 240.53923506901526, 437.0429396654004 172.01166781233823, 555.0659510732772 38.526894559342864 M322.2627626922578 312.06916795287174 C376.2755169073529 248.6177877363836, 432.3940790786704 185.48101621794743, 554.463291885954 44.08366717019439 M322.709244917045 311.15323585347693 C377.0851100860221 246.69673835836676, 433.22093808805727 182.79693356989304, 554.5625986199076 44.423866639007514 M329.03516175217953 311.18342349068604 C413.4022611712861 212.28464064554197, 499.23613737154994 115.06693119981627, 554.4155622752105 51.21865965742666 M328.40955845819616 310.8985580180809 C415.69233110599197 213.2398227551376, 501.71694500580327 114.74275124779442, 554.3574094064504 51.56925094175017 M333.58658287083983 312.05277118446764 C417.18963821916674 214.47902866230277, 501.5189852168839 116.21363069551165, 555.8163672798556 56.91659758248709 M333.89015370525567 310.91975127009493 C385.1517944058424 251.24028228225185, 439.52987554530154 189.84667338974253, 555.3714920800495 56.80044534568032 M338.2906592105637 311.08127045328064 C418.36063316123926 217.06851609102088, 497.22895283596887 127.57202818029157, 553.2664974953757 64.56515804314824 M339.3417059751699 310.1685935573163 C391.15389942567475 255.02311028620434, 440.30062975756624 196.78227410120556, 555.0544507784114 63.6448106613122 M343.4170262829989 310.91360560975704 C415.8036940231091 231.66741298767528, 484.69787381386584 147.5242293246956, 555.0589816480078 69.20568685483076 M344.7046304760798 311.3524802168314 C405.9215520697048 238.87925874538973, 469.33107168844873 167.8850604902727, 554.8980602473898 69.16006642312111 M349.68700924696157 311.0401283108842 C420.5933710008317 233.20938682031976, 486.4272475455897 155.8609783266056, 554.9272907839353 75.0428406983416 M349.7461695326901 310.7435111126582 C420.3779342417602 230.55517275414073, 488.99267659782305 151.0893967522594, 554.925421521119 74.68649769060863 M354.4223684691141 311.49348407325334 C409.9631972579627 248.34503175697054, 464.16982392982425 181.7575891076584, 553.0274043003388 81.17187970158943 M355.36235190235305 310.4966371512921 C416.5283415979086 239.06444389190958, 481.1944144499601 165.28182897337163, 554.3162697627182 82.20999821534393 M359.803740413668 311.6127528916703 C423.68477852175374 238.38229351242305, 489.10211711043854 164.7460760961933, 556.0400358228719 87.13009139649299 M360.6140757909374 311.4827946649414 C411.0450240735542 251.13552341744565, 464.40515536777826 191.57173566339304, 554.6540866424101 87.34921572531806 M366.47847014871036 310.890216360571 C420.7681708981584 249.2318366449449, 474.90900076701 187.39931901221115, 554.8397763858324 94.30399234565228 M365.64869941321916 311.2606866651716 C404.74069662521765 265.43509292419316, 444.3240716143685 221.46389316970303, 553.9705544059275 93.14812915895197 M369.8417071379778 310.96290974881293 C437.6036771067589 233.69133725118323, 505.79298816928275 155.5088295644955, 554.0333353691677 98.16494283608877 M371.47125027259244 311.3350407325009 C429.8230414440413 240.9625941752266, 490.6342246621484 171.55995966173617, 555.3363152126216 99.97976619861926 M377.63604736518243 310.2662147852071 C416.09660446332236 265.74673770001505, 457.701527216253 217.35928513460354, 555.3934572228011 105.60911466477764 M375.6298091010207 310.63872703630744 C435.8284188220843 240.31039279163934, 496.87066364247517 170.83792275473746, 554.3438601754129 105.43753539055356 M381.7590866642283 309.192793881657 C433.142501410534 251.39457921865656, 484.6278942397461 192.60234306476897, 554.6289842722961 112.01613432140371 M382.4782338367985 310.17807141833345 C427.39699477108405 261.4334196656133, 470.5780792059316 212.35005680439016, 553.9086736106798 112.10560024468853 M385.43989593332543 310.7850745128355 C430.06238980740335 261.64918595549733, 471.43687755897855 214.84930487417628, 555.004848155728 117.88079576995187 M386.50682749468865 310.72191947678454 C434.7353600165437 253.57510967172118, 483.6570874006665 197.17968378189354, 555.0354565477619 117.6264652370775 M393.45003131867213 310.3690754399133 C441.31334549158885 251.16885207556282, 491.13487949892664 195.58801050917748, 554.7072670375459 125.62719428679424 M392.08144070745715 311.4672478803316 C442.6857580816638 250.41039123908993, 493.79374407017144 190.92623953663576, 554.1817520639983 123.99110296997311 M398.5555548429342 311.91510793412994 C445.67237471467064 254.51874138020267, 494.57227421611844 200.06537167734348, 554.6498641040953 129.95908199716138 M396.6358449356535 310.4471775861879 C447.46628291185186 252.51231129242515, 497.87980451223984 193.98086544670213, 554.656960412061 129.18453981295252 M403.1089767120458 311.28014907606115 C434.8238274161264 272.7398814385952, 470.12944298035546 232.52661171753934, 555.096708574782 137.7800920071759 M402.6751613919883 310.09702338313264 C438.6065898869873 269.2212832732948, 474.1759396973693 226.79698895276707, 554.4363148017702 135.7533181541513 M409.3621285452099 309.4104773805487 C439.5000889169571 273.1526984723829, 473.08346391382366 235.523230570034, 553.682458584754 141.94771365739976 M408.78774965357564 311.06496730530046 C447.85145901738184 265.6956313806043, 485.0845553386188 222.32969170429973, 554.3281362272368 142.29792674190702 M414.5892166741831 308.9560555063603 C443.28998854893223 277.7444041665487, 472.7273415081602 245.6638494620694, 555.489960599776 147.81026988787104 M413.37596274774063 311.1015642025909 C452.00431128060205 267.3361731735241, 486.9605329708893 227.22897492686027, 555.5525424008756 148.29304676604633 M417.83289875369815 310.7230574132397 C447.9540571247038 276.49084133343547, 480.6407116471751 240.38014983578404, 554.0670647478227 154.07874813196617 M419.33490114730375 310.3122311494234 C454.1149024066539 270.4820928730778, 487.7393067672087 232.66759966875745, 554.6140002416984 154.73576500635977 M425.81893466124507 309.7046598728233 C457.22585915165115 272.9837784993445, 490.4556694528452 233.31139793392853, 555.328062670724 162.18330720688112 M423.9452809467 310.566205067695 C457.4391548846847 271.66424735647536, 492.11541559696076 231.62942289144632, 554.3046644157259 159.7261401970581 M431.2007876273772 309.2685424751869 C459.3063795324266 278.6463992356225, 487.7959295571692 244.19563219402622, 554.7093205259036 166.06137287497708 M429.0981325993842 310.0076862239546 C478.288288879492 252.9921592884555, 527.0240720098934 196.8352377614604, 553.8439706324455 166.7566657548044 M436.49287862335433 310.55226574452 C473.68293359556066 263.36909783776326, 515.3470124211727 217.3620570991384, 554.7775576749066 175.1169306847966 M434.1099861292644 309.94868353088725 C466.49575523937455 274.6364787408334, 498.004655187407 239.2489258793273, 554.4523390821362 172.49023906493102 M439.67575316541416 311.22863995454964 C475.4991982197467 267.3494118209209, 512.3196771281415 224.0659661590568, 555.8232935959421 179.63561529439832 M439.42912997250033 310.4804948110482 C473.9450391665656 271.62595579607455, 506.916012782178 232.46895218725933, 553.8284618504293 179.11242764682467 M446.868055731766 311.00517476333414 C467.07855830363104 286.79065883142016, 487.52607249329 261.05540007893114, 556.0262925552479 185.77851822750893 M445.71519371472306 311.20275008382384 C479.14594789115904 271.41101745119164, 514.1196368519368 231.16752018818676, 553.6022679984844 185.6891386980402 M452.5458526756191 310.7007079539319 C482.1547252893203 275.48172579005677, 512.903296797894 238.9643139959147, 556.2354768100236 189.1117208119641 M451.27722100406373 310.58129030610075 C484.209952714484 269.8307275265996, 519.3612527100772 231.48185750853355, 554.333586765923 190.97740203274142 M453.7619551382112 309.3220341750699 C492.3546988879625 269.3407407421501, 533.5936944594991 221.45409276638387, 552.907954376507 197.4564708214907 M456.511742464182 310.30604611293404 C477.9030970984228 285.86331077933534, 500.66097794048403 259.4104347711185, 553.6699253389047 196.55679672348333 M460.92583225174195 311.5934378795838 C494.0223487824216 275.5041052475173, 523.2301105225474 238.64422743182485, 554.8889322329073 204.41871541414721 M461.9014388971994 311.10182075598743 C497.74762943910923 270.31219815794526, 532.7031644295397 227.79941207078707, 555.3451320530608 203.64023403965248 M464.7426389074493 312.8068699662002 C490.58072251522947 284.88632521087413, 511.4403192744843 256.85460237412127, 555.6310392324341 208.46572987299203 M467.1729190517757 310.8597167453157 C483.4734836054968 290.24648119946346, 503.5980299191093 267.575672010552, 554.6174693065224 208.43183618813543 M471.64918798753286 309.5967711377551 C499.09844964090803 279.88819042597856, 522.5330967395306 249.48411713921257, 555.4136490163247 214.00274634675205 M471.9514418550324 311.693209207583 C498.91026173056326 281.2070732009435, 523.5087345765725 253.48477599107818, 554.7076864729489 216.4848150539872 M478.7529781332304 312.7902485429752 C499.6225925859727 283.72507164695435, 524.3240609155797 256.0347583568785, 556.1227932167792 222.90248678826293 M476.91869418062913 312.069572527844 C494.3208635629363 291.53682357157555, 513.8464069043941 269.35346821343273, 554.7976831044623 220.51225513887158 M481.26816597674167 310.181899134696 C501.65160365685045 287.4499568602459, 521.9548228788698 261.7668596783079, 556.190189225035 227.3553395962514 M482.4675130806876 309.8659537077625 C501.0967995642751 289.93609182017434, 518.8407672476767 270.5341643627113, 555.1882866997219 228.5185402028434 M487.45459390930444 311.38398631164455 C504.7003080459753 292.048490764498, 523.2892328498699 270.14598745276794, 553.3731533943017 233.39889255377608 M487.85966355386734 310.50079900739365 C507.4991428190735 288.0972057340118, 526.2123480510227 265.94868590111355, 555.2979159068589 233.61013620278942 M494.05376231311845 310.60126327665637 C516.528105727061 282.19660545636805, 539.537982705983 258.1445646665212, 554.9739239527884 237.9945615688953 M493.88056077729004 309.98992730340103 C512.4339124508867 287.99584285974976, 533.3253777121556 265.18616679145964, 554.1006534365046 240.3534700330961 M497.22785732942145 311.48114967845845 C513.2750103023996 295.1472910867432, 525.5287591081919 280.88393935687094, 554.0589839167327 248.104219415336 M497.9970478746153 311.0779567308398 C514.8459319874224 289.3624848702961, 532.7391352229122 269.6429607167738, 553.5643189748183 246.13280826631848 M503.99572309041326 309.8885549698864 C522.9739711357719 290.84496468953887, 539.5897738793215 270.1944650686529, 554.2389742933346 250.2197286709338 M503.0121181479648 310.29437804137365 C523.259637875545 289.60219150790334, 541.8048901842833 267.6260010829858, 555.649132386422 251.96104009162033 M507.17188948733144 310.7560550496669 C525.3965170799852 294.334527702831, 539.7220570600308 279.38489521533086, 554.6077218488317 257.21311835941543 M508.22269284599804 310.0849812450574 C522.8634281084836 294.51114470687673, 535.5539067899485 280.45295036828924, 554.465491482475 257.6111039565565 M512.802544402376 310.85871562063585 C531.3948277304149 291.3628332219434, 545.3600235656311 276.3329538639085, 554.5221523114334 265.86611688883954 M514.0743433958369 309.86792896855513 C529.6213734506538 294.40561178613723, 543.4200922856622 276.61546616953143, 555.2726352236087 264.4267705055138 M519.1045614767845 311.66426883151996 C530.8372260611989 297.44924782534423, 543.337816194648 282.3395654425949, 553.8216132843487 271.94678079226446 M519.3190691711407 310.1651830969216 C531.08582773721 297.88569829235166, 541.5208198598326 284.92128380493, 553.916716632954 270.6805213203786 M523.9014723427566 310.10793663515483 C537.0507377615788 297.4551529746335, 544.9664590028797 285.8558133628774, 555.0471971588155 275.286123468417 M525.670019724031 309.6585781318206 C531.1906184006698 304.3475485984323, 535.7637150333933 296.78129825723767, 555.2688757091706 275.9314276612059 M531.5624943915304 311.44260743026746 C537.0841029720981 304.4911893629009, 543.5965522230526 297.503911667537, 554.2216543170337 283.30764812013297 M530.9592725531679 311.3212478333072 C538.0355658393971 301.10527648103397, 545.4296745305487 293.21734703730806, 555.2239026293803 282.8359334046596 M536.4385030053054 312.01365941969345 C543.3160682520645 302.34928481412305, 548.3644018707681 295.94477434987266, 555.7884209002407 287.87752439613905 M535.7925553356727 311.4736985780452 C541.9679057718918 303.42287040755355, 549.4085833534027 293.87435625105655, 553.8580155172424 289.27928168579456 M541.8010593253193 312.1091372521595 C543.8438937653979 306.1044761748453, 546.0884894392241 303.7524929603192, 555.3915320116461 296.83412132949377 M540.707023695205 311.9152360010893 C545.8862873193617 304.0737391569893, 551.3444522389499 297.55231906295217, 553.4275236458883 294.1862978364974 M546.9192959686695 310.66940486601106 C549.5029388121457 306.36016442648685, 553.7276162236983 302.66883722145815, 554.3351299452727 299.6500157295376 M546.6252365862439 310.8289557988524 C548.549793905615 308.49864142843956, 550.0435378515259 306.5040984562817, 554.7979011642412 300.179526560672 M551.3781716579101 310.79715464022837 C552.13246983828 309.6887858864541, 552.6447514949209 309.64900278077175, 554.5402638036285 307.2466307050693 M551.183744390029 311.09850675115257 C552.2911528922599 309.74880601836327, 552.9396419603621 309.1438133549096, 554.6215126595453 307.2101546641118" stroke="#ced4da" stroke-width="0.5" fill="none"></path><path d="M0.7468738369643688 -0.45301589295268063 C149.1770878550171 -1.2451599292277096, 298.2860913933335 -1.3174387387751338, 552.1003813318908 0.21899045184254648 M-0.13558135889470577 0.1522247936576605 C144.17397477277737 0.45018622504959044, 288.3402604118957 0.04813383447418148, 552.0066134486348 0.3494977977126837 M552.4323854438372 1.3129114149872674 C553.0314492492636 110.78017920731301, 553.0023327945713 219.3318929090396, 552.1827003791717 311.64370754580597 M551.5093919469007 -0.42848440728201564 C551.2725528915422 105.17745272804919, 550.2664111468633 209.49282800047453, 552.4255886228509 310.21496838356876 M552.8641331963241 310.96023851111534 C360.54678723939753 312.03502562874894, 169.57556478710973 312.59383049840073, 0.6474121145904065 310.9051833935082 M552.2308107051998 311.0502694513649 C428.78794060938344 311.12903576612524, 305.9403986538258 310.7935826492315, -0.03029572628438473 310.86999652646483 M1.0578478044720234 311.28329966903874 C-0.6917368013627684 211.59081672891668, 1.3512212986682233 112.0650468023642, 0.5794975842494459 1.294673705002515 M-0.6436905432327636 310.458164911268 C0.8291487845702872 196.51954443867564, 0.8320547520821094 81.77099625192315, 0.24202863071536193 -0.013063538763986481" stroke="#000000" stroke-width="1" fill="none"></path></g><g transform="translate(318.38671875 112.00390625) rotate(0 99.662109375 74.607421875)"><path d="M0 0 C0 0, 0 0, 0 0 M0 0 C0 0, 0 0, 0 0 M-0.7913706972868988 6.125209551354043 C1.1875492780545627 4.3110423059347145, 4.099260905917831 1.553050003501026, 4.812746785911268 1.0394571620819382 M-0.6036550853075335 6.5455154072987956 C0.7809249880547995 4.761395602068651, 1.554031251601787 3.840099937760623, 5.240569540815896 0.4716591633704716 M-1.3146315938700333 11.198510893106043 C4.406330510962171 10.018111993038602, 4.367185949925345 4.868911161963515, 9.353867959928644 -1.3410953869030118 M0.6750633315276013 12.562254762321293 C4.231464200231225 8.341073396716048, 8.276266603726532 3.7265097209690694, 10.121331950229537 0.11318042754081503 M-1.736356114088581 16.514333710913235 C4.992461874599347 12.948999851868416, 12.679101354982176 7.447990615845264, 17.530463596343477 0.04622443271102217 M-0.9981896374887089 18.548325663339966 C6.409437748601809 11.765956756113964, 10.924185085622996 5.007612387656145, 15.144736782185216 0.6271781993028691 M-0.06509757952771444 23.635095804645776 C9.718490563343293 13.9133105833719, 15.814615372057542 4.038136800263789, 20.893078808018828 -0.395636328107166 M1.0283981424010609 23.76708902855879 C7.86328822964957 17.06966429924198, 14.339399458966742 8.61936198984848, 21.02020820909914 0.26768321955348284 M0.895870282365884 29.694895557824722 C4.96980090729487 21.378461246215085, 12.40509537389614 16.675400230694457, 25.523125514995666 0.7283105900523008 M-0.5754679049784883 30.729254257630757 C7.457971994896381 21.225208673904987, 14.91813755018113 12.33134743904142, 27.18700925600937 0.060373062641614794 M-0.6566830501985272 37.573117628508555 C9.194563144829369 26.3453579001443, 18.03364220815162 17.48542244412189, 32.80272909947375 1.2321933900251274 M0.6857793060037771 37.573513869942474 C6.9730881970504655 28.349392052512858, 14.578064186558601 20.33329629940654, 31.48524260003755 0.8413791052310948 M-1.668566224011684 42.76047479975574 C8.02198114499981 30.67798091841808, 17.17967010477312 22.67345558539189, 38.03470070269083 1.8728067205381116 M0.7071209234789961 41.55477132238053 C9.353750637064739 31.84270667031614, 18.640808226198132 22.755741021731165, 37.186438864843296 -0.5743680176231543 M-0.00884309783585735 50.43563672029309 C7.851538121445465 38.06230806134831, 18.3726855934192 26.976864581413516, 41.87850945684664 1.124435034426952 M-0.7789749288932271 49.402019749999866 C8.093724995364449 38.34294131597839, 17.500640463161588 28.94920094315759, 41.64827885254823 -0.3370650542573088 M0.31008046052871663 54.99476284295629 C14.124812223461136 36.94441462270339, 26.382617757933772 21.29843907331506, 49.289310253178954 0.029029230418448293 M-0.2038899489912538 55.12912490446429 C11.433222258892537 40.17642351299659, 23.574630610585775 26.81440309464479, 47.47237131181198 0.5693905053835557 M0.07148434231977774 60.901679066472155 C20.17770880262902 37.77881533205138, 39.85029640017106 14.563149897816928, 52.953915973887504 0.9710300113483079 M0.9949221118445308 60.16625179582874 C10.083392509093288 48.00521236817249, 22.40845271143144 35.31893116416653, 53.158975169756175 -0.6165262120367281 M-0.36575259925341896 66.21741067389915 C13.096058621505728 53.688201181676675, 25.74732799295225 38.5849543312799, 56.22982526021005 0.5275445259433234 M0.37259865174525686 67.17064763097981 C17.68123014390183 48.03805662984411, 34.84041443621153 29.381377404782974, 58.264777300040436 -0.3025408214632428 M1.1521703640183816 71.67681107329575 C24.09137758708243 43.6639391802453, 49.74536616110294 18.553393255525336, 64.58119474434633 0.24316972703919504 M0.9149411313420543 72.3845205543041 C22.530445546109938 47.3026876831169, 43.51244958901364 24.122080830108324, 64.05761475478639 0.513493678767837 M0.7932987483729192 79.76519053838877 C18.022087024521426 60.45305082817882, 32.53143477850429 39.44979407082014, 68.51786681753411 -0.519830986637281 M0.4764879867945382 78.99291838835654 C16.92464881962321 58.77525983224757, 35.03617974747096 37.56447401903455, 68.67425253265365 0.3750235487114324 M1.5198360610099542 84.24784914701388 C26.493962027665795 53.92075818693068, 51.93352632620834 22.878202758357787, 75.03134186197313 -1.806704412250383 M0.7791778327243435 85.93451157230095 C24.59284871683002 58.32771359954056, 47.05116634727039 31.170923211251754, 73.77510581076386 0.42286766503139006 M-1.9728284318327738 93.02025342289791 C24.67092153409717 64.12629033909037, 49.04824648446031 35.978636332523614, 78.53380601890115 1.7799690989266566 M-0.42987276970891486 91.03301980369226 C32.98053248823483 56.57126840464202, 63.10570316031593 20.06364566465723, 79.70201771277664 0.5266441627826026 M1.5237934980539904 97.63756927409932 C29.955951146640512 59.98764507605085, 62.537336544486834 28.189100934659677, 84.2941034205179 -0.14490100027043695 M-0.3797061098741068 97.80799497691706 C18.491742515800635 76.74779885793401, 37.059203172401276 54.52872285055027, 84.1329815408136 0.34084379362892037 M-0.049388046120498075 104.39129073367658 C22.87809926752631 74.58228435648107, 47.89993573446487 47.741403587097686, 91.37676395806113 -0.8987388111148817 M0.16254958535989772 102.83269992386195 C21.98118168713607 77.0607759764695, 46.4010613570455 50.967967127778444, 89.23991854353437 -0.5637434323747499 M0.20028182688150054 111.3858687003565 C23.898001040249937 80.50044601147582, 47.38678760452579 53.604440363299425, 96.07797551373065 -1.9564786307709596 M-0.6702469353472864 110.09198715458186 C31.80766074617167 72.22716998441156, 63.30008035714593 36.146344145697796, 96.34340014806062 0.35604511143543505 M-1.1028840007402536 116.06824387697479 C38.31546128474465 75.5923491913955, 71.47777422556585 34.500062783939086, 98.86461172876412 -0.10038831051188168 M0.15341325512597592 114.79308179574063 C36.382114936754185 72.8188633104248, 72.01578965635831 31.871481119453776, 101.0704257280519 0.7471713101143891 M1.3361131122519794 120.07802341225823 C28.461303496910734 86.60356684099744, 59.951213848724066 53.03274514688117, 107.81020423536134 -0.6452458975019439 M-0.2785329695607004 121.49700823239317 C34.78339557231083 83.13506894505215, 68.40000062261394 43.09528883466237, 106.00914483562988 0.4164696653259412 M0.26287076906745455 128.7770138392653 C36.701801544437984 85.83445718214463, 73.95584539959565 40.790727605457064, 109.53397042476006 -0.5881629930143575 M-0.8230575862761853 127.92937304642606 C39.283004409093294 83.4714253054529, 78.42286084513697 38.52748558809354, 111.86663496945418 -0.5379260628749947 M2.092908447915434 132.32584981605447 C37.391468026749436 92.43426968752132, 71.13822952201278 52.52867279984258, 115.98072665016952 -1.079051813990624 M0.15603149061065835 133.33824375722594 C27.436551010796702 102.94728601505281, 53.60212806146741 73.39711471419831, 115.46756477765592 0.08420008239820476 M-0.8690095849663635 140.76062286635258 C35.568280305328805 99.36795190715739, 71.52331668100825 56.5384727760228, 122.64021113979896 1.656003547627705 M0.22616332225942415 139.85202756234773 C24.91982323394533 110.83809272124553, 50.76116509486564 78.83789232448328, 122.19226697086623 0.943024995532113 M-1.6489610723781567 145.52241431799527 C40.82368946068381 98.44297419540524, 81.798872740991 53.01849909979181, 128.76640690988614 -0.6086241344325529 M-0.11533285170823149 145.29025427595522 C36.8875834653048 103.88536622993217, 73.56514595563856 62.37689998214404, 127.41481123524471 0.5165652490816726 M-0.1837752572562399 152.60700639310954 C36.96361205406874 110.05126787829137, 71.89771585264388 68.32532880744704, 133.99647698191586 1.2828632711490848 M1.959412164306344 150.79583664060746 C32.739953104621094 114.03077428469612, 65.37102099347887 76.24657901793387, 133.40628525339568 -0.08506812659932772 M5.2702159350263 152.29493752210288 C54.06679255722468 96.91391355411888, 97.51212786049403 43.323908583635586, 136.09468207927077 1.4606881276450423 M7.609809996512723 150.83987953322827 C50.24815867365789 100.60497958383169, 92.55021924436983 50.782053547520334, 137.9694833825308 -0.005602207525882363 M12.800263399145273 149.31836044875263 C43.132935858197264 117.22425330257224, 72.75180972779914 80.37247265276869, 142.81854443059188 -1.5219827920203621 M11.924030255360782 151.4462768275709 C53.61129196557674 101.96207676637124, 95.90868898769772 53.43732913872141, 143.14364569629876 -0.5054498557544782 M19.54407444791677 148.61782415551838 C45.24663293835208 121.06969531455931, 70.77676884442357 87.74817035905879, 146.26779825207333 -1.14992362150781 M16.739694622436488 150.39926839681115 C61.64918884707828 98.02671969982147, 107.93226488872256 47.035113031921384, 148.29686442263912 -0.0968042405494316 M22.609008504475646 151.4064947480939 C63.74999526353057 105.64145800385438, 101.64446149291317 63.10237891698579, 152.10454424665377 -1.20064277213622 M22.569125284914698 150.34801532151835 C73.33618713578852 92.84646566178287, 126.52129824372653 33.09123516468871, 153.3888928489415 -0.01822574057216532 M29.272881386100217 150.7561481058284 C69.05864815834933 101.69074093974585, 105.63091394447117 58.55620567026065, 159.3067515220439 1.061982024358855 M28.261062555245026 151.24936389491552 C72.15303265615411 99.1074894247006, 117.38883631150374 47.340893789140694, 158.95286255869473 0.48783219688598933 M33.423735747211396 150.66134374328166 C74.83269083835617 105.23282402766651, 113.49780618305272 59.48561921399354, 163.77175502482805 1.475665376699948 M33.213784307167266 151.60256937293798 C64.06909742260696 118.54881012479878, 93.5529887606785 82.79460270185264, 164.25562206239815 0.2962399225608922 M37.21200784332662 151.22797577928296 C91.01165546486199 93.39895248207714, 138.4104691456085 35.52958848094329, 168.9512879829324 -0.619903528504949 M38.987634498063315 150.50222657441637 C76.04804990746021 107.63543770060684, 113.83449154726102 66.151299086033, 168.88401099382259 -0.14744484834460536 M43.77275912832911 151.2756085739645 C80.04779084208828 109.13744061187097, 112.99015655811476 67.86385834784723, 176.7844156723413 1.038984387886594 M43.52864672006773 150.18515738856817 C74.90876217644374 115.56241596424404, 107.04508412036341 78.87523247437566, 174.8590200314929 0.5809849935079898 M50.835574913345994 149.33262358213204 C85.65174498136774 111.20689997717426, 120.58844716680764 71.9738729855183, 180.65990372848887 0.8693611261507783 M48.62375615401638 150.6292919821887 C95.72393694172723 96.70133099570269, 142.58812166803503 44.286055690299634, 180.4274679311477 0.9609876706337843 M55.53117096130535 150.0453290672907 C94.49918064197722 106.40725828287152, 132.42286393972586 60.94859201342542, 185.35377740892017 -0.07574631767787232 M54.435878265315296 150.8441529313971 C89.79918974578203 111.50564126780081, 123.66214840476566 71.12404680638666, 186.01578679480002 -0.4974725116176196 M60.336453689908346 149.15065792062566 C95.31956038065542 111.45203996861045, 126.81012151907586 72.55920890167066, 189.60984485246337 -1.624032605423963 M60.76439822622921 150.46137066510752 C95.79580834796732 109.96850010304524, 132.10800975910732 67.33370519439032, 190.31101657379514 0.6361278006961584 M64.92110187211667 148.9695197379088 C103.02113897914803 109.68014117722736, 139.8503647378503 69.57646193141028, 195.13763576679113 -0.530430631595 M65.40924902835918 151.00157872066313 C92.70153354330522 120.30524958216067, 119.91165832084428 90.31858157094503, 195.7442657346437 0.5506835795473592 M72.62626526676365 149.5438952010138 C119.93879770080892 96.44122215347778, 166.93830655808955 37.41292714579487, 202.04104841961527 1.282066263243621 M69.8951564178268 150.18864817004783 C99.94711841808709 116.08922903163389, 128.19233645233405 85.06353583460732, 199.99700609589928 1.3150581689403111 M75.0407186357278 149.76182290835786 C126.6632881495962 94.0992678333997, 171.87358569416273 38.31316469875766, 200.48933050575204 5.486784458195018 M75.3326722245637 150.65350960584837 C119.71598302543113 100.97234783475668, 161.47375078908084 51.704102154486264, 200.8486864276091 7.9564884202901 M81.33538073766195 150.15540182954652 C117.40398664908074 108.73084054272371, 153.4257601644397 71.7633295966688, 201.38343411782756 14.562283261522296 M80.39225143193417 150.36068504388464 C112.89065415333806 113.6290591935617, 146.35104768029112 76.10228104021274, 200.80964329471811 13.105460945360008 M87.31110958880382 148.70212973830655 C109.36201982716351 121.14530669601143, 134.71134983825527 92.54976679125534, 202.11601414707954 20.113013571952223 M87.29952622609781 151.56162855671153 C116.92087558551123 116.43387105967628, 147.39957557412473 81.05562560205222, 200.7627354458859 19.996828254204928 M92.15686216736268 150.16420379269647 C132.90819254652848 100.74506035807292, 177.6737351773727 54.027113626547106, 201.1553244467173 25.84062567254327 M90.86646994268577 151.64112641371565 C131.6876050236783 106.19790234148802, 171.72683789588353 59.575757400118874, 199.83341277924367 25.842525053711455 M98.6690173265478 149.16514927577478 C116.53272359816243 126.23458339093415, 139.73432610357668 100.50839936637773, 200.26454074495 32.620597971353945 M97.9294699798292 150.47517582178367 C131.68357571698428 110.91995138876953, 166.44068315632774 70.91002984271404, 199.8277892554225 32.189446988266226 M103.47069870759691 151.26644833626824 C134.96449565893187 111.1626217865306, 168.89221189592217 70.793929934764, 200.7210835580155 37.57886574211102 M101.78740071118767 150.78886366597044 C140.64237319025523 105.82127486271015, 179.98783584868994 62.67812196602833, 200.670715810582 38.277329380424135 M107.79168794270977 152.49707292701254 C126.34169491122418 126.73731180706885, 150.61133957300825 100.21270567252125, 200.09653139311348 43.621354062650184 M108.20028668888285 149.9671494479398 C145.06363678536243 107.61606611522363, 180.52800928420012 66.75169158055164, 201.40444355934386 43.849530169348995 M112.40745242312411 152.20366144673451 C140.412519048975 119.36275700889702, 169.10297080828914 89.12690767274773, 201.1956485164817 50.28415445669829 M112.54708041157434 150.18629192774668 C131.685961790845 128.02631244687524, 150.58772535535957 106.64416386677209, 200.34640156286764 50.284456552595785 M117.07511753103967 151.82534209826983 C133.90755259390323 131.05808037730532, 150.4857044462934 112.16523123994001, 200.83629815632938 55.26305783231375 M118.48038455638374 151.4699224820549 C141.32601740667846 124.55313654633568, 165.26951253051314 97.69123974413903, 200.08786003178446 55.40634792455104 M123.47249440769424 151.74390953034532 C151.30429639372124 120.77095086324208, 176.27390430558512 90.94545434596341, 202.0687654158658 61.490183222555075 M123.08422974697073 151.8204717459194 C148.66480414555247 122.41028218720844, 171.87588750740443 92.95974121953455, 200.93200323922548 60.843154617101405 M130.63405218528757 150.05864819579665 C147.29259672179705 127.6334104451704, 164.9994472291407 108.85606979992873, 200.39508018632876 70.21060652614906 M129.52879678545693 150.275242971004 C152.63533893889678 122.32004961925676, 176.18052617797812 96.99773998065686, 201.33200243385033 68.3844166403018 M133.8899457550574 151.43650899335069 C156.50375769082422 124.6099866423978, 182.42498805866884 94.79513012609183, 202.54893034991795 72.51189344593143 M134.22819442050195 151.03783866736364 C156.42139546869728 124.44346060799131, 181.05607427097618 97.5973227469229, 199.88967904278064 73.79204662081605 M140.30198799920345 149.88693262584303 C153.148800750822 134.6683482043698, 166.57046735562687 116.08885203697167, 201.43468954787113 82.17427613062893 M139.4951815792274 150.5342339616621 C152.3569940576985 135.0201429555752, 165.70620404166965 119.5103748169875, 200.513282439676 80.93175644369904 M143.60267755896348 149.61202624200052 C164.4780016488202 127.15605012720994, 187.53989011816924 100.20611015465288, 198.90733038339755 87.20018611330005 M144.6989451352929 151.5442032389543 C162.63422006464882 129.4980392371978, 181.96843577596343 107.77392203655224, 200.41615314766756 87.5838401908374 M151.6311710665373 151.7813867946589 C165.7371703734674 133.75667157070237, 183.6995656137869 114.45086930088111, 199.99174733470645 90.89088305200332 M150.91982214082012 150.25739350090416 C169.08769378752405 127.9390650276018, 188.22123638339417 105.45529865370109, 200.5547957523864 91.80105288161778 M153.27231091316253 151.38227768254495 C170.43417685626397 133.89711758175466, 186.66878040702258 116.8981356629823, 201.10207966803557 98.92308347046546 M156.1070775944686 150.40475100756652 C169.12642661970935 133.03490736001996, 183.88998260736892 117.23356469112224, 201.0669518149922 99.26648921359501 M161.89259748103905 151.99445210849433 C171.15314151878624 139.20812607449355, 176.60935361676582 129.73561817838143, 198.82162464058473 104.8784936965222 M161.73362667336005 150.3145946356052 C174.42331760443165 133.98106443108512, 189.50986507236138 117.64841035497449, 200.27026307510658 104.10436650093295 M166.27921691140457 150.64032972123388 C172.59337921538065 142.62508997476965, 183.7046666122495 131.73839594210597, 198.84186526859162 109.0939865039004 M165.9538125011541 151.04404252007518 C175.77852637589677 139.58099387762044, 186.6631410192473 127.02889391824667, 200.82004921888915 110.0114513161866 M170.07601333645883 148.55981997359928 C184.19034797449405 139.01495500008502, 195.0536314395175 123.19795268410627, 200.7423835302655 116.19113405065843 M172.2581283799723 149.43508541264023 C178.124857463931 142.88792958029921, 184.87811204010245 133.59624465683456, 200.70797108197104 117.06784242874244 M174.7225166474396 152.06049876431734 C185.34923399278762 140.11374205330415, 192.59195221359127 129.96346025916102, 202.2101832788156 122.15283661985482 M176.63099555847435 150.24601332335533 C182.3520185502412 143.67207622282564, 189.26064153877897 136.70904325361624, 200.70010356248335 123.09484954548712 M182.88991472654658 151.29243179622375 C186.91211581407842 147.5396549014483, 188.42983673154848 140.1979099521382, 201.25901315547972 127.39995136021639 M182.20548546378183 151.20748887888425 C187.64391513740262 143.55301548986674, 192.08554386252203 139.00406256856817, 200.77500853408574 130.0128720514756 M185.42008121501755 149.09835121804534 C190.3257826897269 147.5693633397302, 195.2086307160201 141.5912402947494, 199.0092797924576 136.3208252245788 M186.42109746955435 151.15397396428196 C190.5192487090893 148.2313377732833, 192.3193038777737 144.71996643508618, 200.12239804889984 135.65218194837166 M192.72809062752455 151.17995880188576 C194.24466570386332 147.277829547129, 198.23423677819028 144.58215896954968, 199.39649066823978 141.75714839424714 M192.07825065724134 150.75475326104245 C195.74708828239213 147.1624268975292, 198.2921100990455 143.97485870211472, 200.40079258299875 141.61487572498396 M197.71364262885413 150.49996942259872 C198.24572915059701 149.64789869239706, 198.73444360448104 149.06829362513673, 200.2521435549015 147.35777872906132 M197.83137907478027 150.5559507228112 C198.58158463663634 149.6197294854255, 199.2787537305401 148.72809222998654, 200.4786815505007 147.7733642985399" stroke="#fab005" stroke-width="0.5" fill="none"></path><path d="M-0.0492089856415987 0.633054094389081 C77.60209208936831 1.75696720606491, 158.74303053925615 2.32745083100006, 200.98650486581028 0.21309627778828144 M0.09394479636102915 0.809265143238008 C43.594307855751325 0.7791041529560969, 87.24690117789797 1.5050875640297816, 199.4031986379996 0.4381736284121871 M199.4227426778525 -0.15147863142192364 C200.6240721553937 31.411650157946497, 200.38585915271196 63.65680294939011, 200.80337954871356 149.78575845248997 M199.1388570452109 0.40514812525361776 C200.21709280844019 35.1899168239328, 198.70388796563432 69.77446636825407, 198.42416317109019 148.63199419435114 M200.9890833031386 149.89168830402195 C154.05904194374634 148.2909911518443, 110.81431667016949 146.031835341965, -1.7627127636224031 149.3070309329778 M200.06719309929758 149.32965869363397 C120.15048237100527 149.39276106739553, 40.12507661250055 150.29067479157956, 0.8059990191832185 149.5934987431392 M1.4385702144354582 150.43766476400197 C-0.15575557467764156 104.58600830983522, -0.22405814645117061 57.96483777180619, 1.442219628021121 1.383664207533002 M0.2975625777617097 148.85803488548845 C0.5820502167387531 113.33966419039024, 1.0573459690256641 76.11930432140288, 0.7104798639193177 -0.42648875061422586" stroke="#000000" stroke-width="1" fill="none"></path></g><g transform="translate(13.375 350.48828125) rotate(0 45.064453125 19.52734375)"><path d="M0 0 C0 0, 0 0, 0 0 M0 0 C0 0, 0 0, 0 0 M-0.9488582789571831 5.642154745061986 C1.2945061336240817 5.616331289893247, 2.4772544176329454 2.7133244913581014, 5.403713345857805 -0.4137276586296743 M0.033338977801625924 6.085935749535553 C1.5616728997402802 4.580476175518157, 2.582143729721116 2.813398404823077, 5.1070013127797305 0.19972362963829574 M-0.13547023301016226 12.09656095993477 C3.431577862817551 9.566266182187732, 4.594746803526496 6.844010237420689, 11.36246018702997 -1.3857009787962078 M-0.2715649305750025 12.26941480752784 C4.9264517479006615 7.802497619931641, 7.995552563594352 2.9586752094392708, 10.636531681519878 0.5194095435634019 M1.1848293831059475 17.059468788002306 C6.3152287941584255 13.093352537199177, 10.056628842092415 9.471584797651527, 16.50431063166209 -1.383533702518327 M-0.5352655463433127 18.35712934276151 C5.1123181541704685 11.933658584902641, 12.269108941720795 4.717325371148242, 16.153175158895035 0.956060358968096 M0.6305655187181447 23.988511230512618 C7.94438929256715 15.314486005922896, 12.678369292956951 6.7173003015707025, 20.855152376273537 0.8575768949627403 M0.2393821619636629 23.176697334922014 C4.525347322571099 18.020911692353202, 9.413366930890966 13.242760501757983, 22.129396257268155 -0.1160436138347265 M-0.11765829934278571 29.656727898631445 C9.736384152575575 18.46573459166816, 17.645576405468546 9.872311032772327, 25.160288561743112 2.225740136021072 M-0.4616559668863758 30.545317901995233 C4.3380266968274865 23.27115622658064, 11.16841935133061 17.656247176210424, 27.04359728996864 -0.5786396894592105 M1.392420571194915 37.85402591135477 C9.734562422033484 25.25267358303342, 18.873829737397568 14.290269930304309, 30.654993984333075 -0.0895495655701275 M-0.02934849179354515 37.63958639539902 C9.170818656589889 24.155632620754506, 21.769112865391616 12.761651334302414, 30.89426716458688 -0.13386553421027614 M3.130069984574533 41.58860552201024 C10.133435416013835 30.34954489309957, 19.736534516386506 20.25466480969288, 38.81163544934367 1.2899623998534402 M1.260974052813566 40.45888348838291 C13.110899083557308 28.347124667483758, 24.286591681720203 15.335568060919144, 37.046869610251235 0.27814356899824944 M6.801649804077311 40.557427179816614 C21.23833208467804 25.4157908238329, 34.59492171971511 8.489613996771439, 43.400644003037144 0.0811141960649735 M6.750955954044326 41.51459223758752 C16.909529835397603 29.346863537107534, 26.930077520251423 16.025276751811482, 41.576065409552086 -0.15217192113856015 M12.66311190202247 39.333711529883736 C25.298809771834218 25.726463559069927, 41.29854801865874 9.33098245538432, 46.05454270071375 -1.435495817271228 M11.49296632054608 41.23634808304458 C23.55051875257641 26.591410205087897, 35.72476363191587 12.434891810992827, 47.11099016661781 0.3401308374654697 M18.23703142068177 40.76205319120758 C27.931858877506755 27.498441921942216, 39.444981416445074 16.880021855296594, 52.328918838635744 -0.26568572638195675 M17.248380343418713 39.585902626171936 C29.963100478638694 28.107025135708508, 40.10967432212004 14.964628050982547, 52.17747653903878 -0.5369295714945785 M23.876634540355447 42.183597398452434 C30.481246486074298 32.81237028212141, 38.59523163073506 19.594546802833676, 59.26645172210337 1.5234865783970797 M23.332857064290586 41.501050271555755 C31.718275533467068 30.978740180555317, 40.754043420087235 20.337362175759253, 59.04333200594337 -0.6883321809325373 M30.170711682305758 42.3405729403915 C40.686271670676476 28.641768179125467, 51.43711237536452 12.74906422347047, 63.457884897378875 0.9535467608390817 M28.30250257825208 40.01891116539111 C37.31880737135491 29.92149730232873, 46.494237787127666 19.27519934724968, 63.060561099921955 -0.2634802821533313 M31.507645276832953 41.601468801689094 C44.99316052132717 27.37173090630739, 54.71517248914013 16.9485608868471, 68.60605391976252 0.35978068060834545 M32.799147801931575 41.719857837264186 C40.95455820864869 30.050404283683683, 49.81472885638504 20.991243418569912, 68.51064317510291 0.7877252169292106 M38.13638199519928 40.110857521118405 C49.6073288050167 28.409917419702857, 60.956838531758024 12.753965725005113, 73.58685858551654 -0.45894224852190746 M39.89257070541944 41.096088558370056 C45.416608604216115 32.04500469374066, 52.37231673434753 23.39649582611084, 73.94675463907662 0.08345915001018511 M45.73046051770499 42.01457183334373 C54.43494968710628 29.082144683806675, 69.03251860588095 13.572831119190894, 80.0132906999412 1.9850075831125906 M43.92577408034405 39.99555398329489 C53.763122926720996 30.03489416673334, 61.5585064064219 18.40525945977503, 80.03904672097144 -0.7461012658242652 M49.44898376561234 41.60952802713827 C58.608552685680934 29.887023186875986, 72.01333119491764 16.531896690171184, 84.29640630929873 -0.982156660714935 M48.857207771795785 39.99053050823376 C58.33697792262328 29.36744423414347, 67.78549077358645 19.348945286309796, 84.91686770337776 -0.69020307187904 M53.50064666922156 39.56890258716633 C65.9552550986932 30.205184923702433, 75.59962274323922 15.577950356408497, 89.20935346888939 0.029538379659797442 M55.106046446403006 41.82154691277285 C65.31811341602753 29.915196950201427, 75.19132462983113 17.2506641671792, 90.01404069042394 -0.9135909260679824 M61.204708399794924 41.0919555522011 C70.7024024962909 28.935629464750505, 79.17207575383114 16.972285492631322, 93.32410835901342 3.642487938901091 M59.89441182425611 39.76595771810723 C68.02145442341211 33.30677703620792, 73.58410706474876 24.47043813652897, 92.78684972373836 3.6309045761950856 M64.55502013763265 40.1292071569069 C77.03067718668133 29.315329629091806, 89.53382277009821 16.0884597417875, 92.48003431396157 9.144299546450476 M66.09265044698344 41.08186982882309 C73.06753276737771 32.69964528518447, 80.66071601607568 24.362659206104613, 92.46384881143987 7.853907321773569 M70.28099730399704 41.53226119005691 C78.16011257400133 31.149111688123288, 85.43690783202673 22.09028808570821, 92.56455890898658 16.411164285858362 M70.56155590967542 40.376715891115474 C76.04085964560274 35.11138607500793, 81.66812991183636 28.56614179605181, 94.10778901510938 15.671616939139753 M77.4116473291883 41.278981636315436 C79.06364194922885 36.66182614437705, 86.74467369581802 30.861789560033156, 94.3893197863602 22.62361427612074 M74.99764662896038 41.05118093457058 C81.50467671830718 34.403814714878294, 87.609733169905 27.407188128034, 93.77301427584672 20.940316279711503 M83.15326776866038 40.59847185161421 C85.40418018138882 37.54404941127148, 86.97747772198369 34.179526838104465, 93.7645907668403 26.92915333631334 M82.1982293400744 39.73848557794922 C85.99119503268739 35.037976588222364, 91.83135448471569 29.181537373382348, 93.85148284984814 27.296892207869117 M85.93033039219334 41.52772685023827 C88.65049472590458 39.40407909152179, 89.76335353473318 37.24538036868264, 92.8229854597111 33.079511189984046 M86.8916433367285 41.06487250723747 C89.03443946922607 38.111181476243374, 90.87583874461485 35.45670732188798, 92.7744898788032 33.14932518420916" stroke="#fab005" stroke-width="0.5" fill="none"></path><path d="M-0.10821984522044659 0.1198513638228178 C30.320201591695877 2.124741892793427, 59.055769100999896 -0.41405208828186013, 89.11037786491215 -1.3836765754967928 M-0.41220899764448404 0.2594747031107545 C28.611706795837748 -0.33913959804955074, 59.67264708730582 0.5359068637710517, 90.15268600638956 -0.12737931963056326 M88.65426548011601 1.6153969299048185 C91.08184215304435 10.271626758774074, 89.98161807534278 18.23176398205251, 91.66749705560505 40.37146486155689 M89.81813920196146 0.963824131526053 C90.55384837672703 7.973264692746307, 89.96644296333783 15.449968475707283, 90.97172496374696 38.75681877974421 M90.2937058378011 38.09559024684131 C66.30111325272337 41.331477694241585, 44.45319115409583 41.202462308137, 1.1111537981778383 39.55967934243381 M89.68305370863527 39.30666328314692 C60.13477236233557 39.58356111704637, 32.414714244490455 39.1933850294285, 0.33020693715661764 38.47375098709017 M-1.4854920338839293 40.86871988885105 C1.400578816286361 27.74124138610132, 0.2973754600203392 16.80475523869827, 0.34302045591175556 1.940427316352725 M-0.27171962801367044 38.876523652113974 C-0.3153198476427496 29.7999614423381, -0.866781276046604 21.677784036334195, -0.14116128627210855 0.003550359047949314" stroke="#495057" stroke-width="1" fill="none"></path></g><g transform="translate(13.984375 403.65234375) rotate(0 45.064453125 19.52734375)"><path d="M0 0 C0 0, 0 0, 0 0 M0 0 C0 0, 0 0, 0 0 M-0.2812519490392754 6.067306212385289 C1.067344973636933 4.3165378317574845, 3.653390494990898 2.8952577720396753, 4.543489933344072 0.5419268909690195 M0.12198091934901972 6.521096183781617 C1.3719249314392417 4.14550388883959, 3.535584197523078 1.538120565855079, 5.25502321343357 0.5648900911060386 M0.18100921149362192 12.075826602100909 C5.585272524030287 8.428279715263296, 8.151492319982914 4.210276986910944, 9.057606318545472 -1.386786593954289 M0.47193370471705065 12.09203899022895 C3.599739551146758 8.147474656723897, 7.485774963007806 3.7141454078411686, 10.886705274087323 -0.15110363335462795 M-0.007013709335611296 17.601553541515642 C5.4006779977776755 13.237730328772837, 9.06068316457273 8.613931354803539, 16.91269298782893 -0.3588191730040142 M-0.8636694662785391 17.971510149446004 C5.132439637774787 11.22068199114339, 13.123577353202883 4.721963681089685, 16.541641546882172 0.6170748860505393 M2.011863524299047 24.624538626237868 C3.4362951027892095 17.056738475569855, 10.300902267430114 15.441005875581482, 21.485052295306588 -1.243431460654783 M0.0909756861812685 23.44770484296149 C6.770957752657029 16.41318227277879, 14.123373684636833 7.7706123627576815, 20.41126951323625 0.1878952220245722 M-0.5905263246456727 31.84427850297486 C7.455898798742046 21.149672445023626, 16.97050279189627 13.759409473914513, 24.793383289736123 -0.6586449133220373 M-0.5577200278128132 31.437032921936563 C4.003188433594452 23.885670274833274, 9.607547309282703 18.61208763248421, 26.752355197120817 0.8742964532238187 M-1.0123112388980111 35.044820915722596 C12.598244223633415 24.547013890348317, 22.086198868883237 10.363285918475459, 32.8600701423798 1.1416755077674274 M0.2650951453390995 36.72839442528908 C11.978881614672162 22.726809860697458, 22.788201838482344 10.463498801797968, 32.31045781862626 0.8051956008433585 M2.0028860107853177 39.29100674280873 C15.183664543752789 25.554822722085447, 28.3104998346221 9.55338582444072, 36.88208903353785 0.15492503727790918 M1.7811609837084177 40.402224713768575 C10.056697242774053 30.28448038523414, 19.513406173682156 20.91213788404843, 37.22936141938095 -0.6597379305306355 M6.386034662685557 42.39893705845202 C18.645513676721553 27.289227975414214, 29.49416587631681 15.419772779884504, 43.29198038447254 -1.2204175360173934 M6.860442086904509 40.51971153151567 C20.56172877767009 26.025116099216426, 34.465270087355506 9.24591737005522, 43.39329709447526 -0.5615089947030896 M11.555195964121927 39.12347313276231 C21.325135645685528 29.173865708203138, 30.163153745327556 18.791391465798583, 47.32187662548411 2.040386772545819 M11.11487787607472 40.529045006062084 C24.580371719841022 26.751208285211497, 38.09471939300435 12.13350624501577, 47.272220760537564 1.1021299379121707 M19.132554432366188 40.55335020973556 C31.253891553599402 27.576195555083263, 42.54598559704676 12.191624307904277, 55.06447442783481 -0.2618394982592456 M16.896663854818936 39.87928142632567 C25.602912207789096 30.99079230404807, 32.38339402540414 23.109988850177984, 52.26403538765824 -0.254747861489772 M24.508445622718575 40.33635414903608 C34.86785942807537 25.54112186099011, 47.35923680272348 13.595638070468244, 57.037062471824896 -1.325013613768295 M23.143529377265516 40.46426988439259 C31.46776058413525 30.602169331050696, 40.49841779015947 21.266418684762616, 57.53986876746566 -0.36231673832275035 M28.246269331441347 39.583854364437066 C35.73065358080094 30.603801661867283, 44.831719742786845 21.18988038320282, 62.24249367871661 0.804030714791871 M28.064900851004843 40.74593521395793 C42.330225412983225 23.021476853020456, 56.56351968987369 7.183235680579571, 64.3862957450502 0.27357470360831115 M31.646517363834754 41.09598046560282 C45.387171224579006 28.220032524986685, 54.97579782041009 12.269532390192516, 67.73321297881022 -0.5452800279144512 M32.987179505165294 40.19820463210786 C40.98424530354769 32.22112635374179, 50.41999524262488 21.233059745920986, 69.05061598704025 -0.18466975611041647 M40.80774576616104 41.511445616306546 C47.360878465918354 30.204909005139307, 56.94689501549131 18.12484254632971, 72.67222954336795 1.48256419688596 M39.69596362233724 40.67558109753746 C49.43834777960011 26.629847038985208, 62.69723868139339 13.864477817311702, 75.08307621352616 -0.5378205962838365 M42.19060259372046 41.532723176212535 C56.150354693939825 27.966573437829535, 67.97023274866845 9.83676142067955, 79.89714455269007 -0.5056663761426279 M44.281326306649056 40.8570699523329 C55.49248789227848 29.47412693214423, 64.97443593074459 16.796475477591787, 80.18214796613631 0.8941040876741937 M50.67880014277527 42.07587005909399 C62.95622740650994 28.387192110562175, 73.34455075574581 12.756458674417882, 85.98112342803881 -2.0021179582269895 M50.480037715691125 39.61475228018925 C62.02961729591194 26.924286894619918, 72.65214452573258 13.377390836642927, 84.53674983996109 0.6404119419587744 M53.143142718625704 42.49570337461521 C66.06158253303026 28.066976740158367, 78.58183485939719 13.612955481129607, 90.79692359971443 1.627323435297157 M55.5208428285918 40.4577115481927 C63.464969466239594 32.01325437895015, 70.41362075947949 22.6023614749336, 89.67152525162885 -0.4763370038439376 M60.50249886753403 40.7356237865494 C71.99909571741631 25.75914440128159, 86.1976784414974 12.088139872276301, 92.95363062301718 4.311693664094115 M59.46668367794149 40.90060696503831 C71.57051285748213 26.47240603368747, 83.41255797282858 12.719466277989849, 92.16482855526797 2.047081342352236 M63.28782914480047 39.55279215456086 C74.70520116986427 29.023485926549093, 84.76622492087249 18.185955652023452, 93.26521720723778 6.707740882605414 M65.05997711786853 40.90760012281227 C73.96935046995306 31.29775908261562, 83.22093232404194 21.19123336252373, 94.39853407149732 9.0460955549107 M71.70315834668732 38.66795289242278 C79.47048609488937 31.08016922120658, 88.69179136209789 21.983753055639713, 93.53122030262901 14.123296799381464 M71.06483705596334 40.260928355209636 C79.04987596849654 31.37628214775213, 87.1174945200767 23.221538268457145, 93.61996317439778 13.830459949803739 M75.18960327849479 40.990610609799475 C78.286407724278 37.945508113658235, 83.61032371869545 30.915403894481862, 91.41288692646259 19.233034158418256 M76.11235222135426 41.0048313793166 C83.19408789929246 33.7386474557622, 88.68794287496387 26.294580976442187, 92.09928011756921 22.11876206594922 M82.38809056047518 40.72945554402181 C87.2343377656657 35.458440101518676, 90.44092294062794 30.019797918287534, 94.43329932373078 28.559902997043704 M81.98890762960707 40.7701996090495 C83.08019961851781 37.83873084949699, 86.65339759271498 33.878016676050215, 93.51311040772187 26.920738330491606 M85.84273633010342 41.274755707707826 C88.3713394877187 38.39442645198419, 91.0329103954271 35.10044045453312, 93.24778439536288 32.54893403701659 M86.12089116008609 41.086553801082644 C87.61709741863002 39.025259061803595, 89.33915629075628 37.177426666284504, 93.11638428190321 32.73405722497206" stroke="#ced4da" stroke-width="0.5" fill="none"></path><path d="M0.231162266805768 -1.5662190187722445 C19.567411742850894 -2.8019527995623865, 36.574027506127464 -0.9192704165019313, 88.61291267164052 1.4739790093153715 M-0.1413420969620347 -0.7243624543771148 C20.312000819950846 0.02688064266079887, 39.31460578367769 -0.2214545102036573, 90.0332759981975 -0.1678847586736083 M89.59700109250844 0.40614272467792034 C91.24346690024475 10.163363811362798, 92.23797129239182 23.737248640113105, 91.20887120254338 38.042911721393466 M89.58055750187486 0.6575792515650392 C90.45122408328935 13.524561337241177, 90.34067013321801 25.807018314579913, 90.30434609111398 39.71125791314989 M91.21522219665349 40.61174841038883 C70.19261053297414 37.31425806054056, 50.28335832058874 41.02212431200922, 0.21327890641987324 38.24077929370105 M90.42362619098276 39.480958678759634 C64.36097319067594 40.20536446719579, 37.867296592651826 40.46945569067411, 0.2938447957858443 39.23682487849146 M-1.4226583074778318 37.91552723757923 C-0.574670889459012 28.446853734330944, -1.875504174313901 16.38896018408559, 0.7524175215512514 -0.05381719954311848 M0.180680132471025 38.665362008847296 C0.9472498617984093 30.825752955675853, 0.736592533431176 22.003974751198257, 0.16079921182245016 -0.061246118508279324" stroke="#495057" stroke-width="1" fill="none"></path></g><g transform="translate(118.42872299382725 349.41931905864203) rotate(0 161 19)"><text x="0" y="28" font-family="Virgil" font-size="28px" fill="#495057" text-anchor="start" style="white-space: pre;" direction="ltr">-  No clicks detected</text></g><g transform="translate(125.50144675925958 410.5622588734566) rotate(0 137 19)"><text x="0" y="28" font-family="Virgil" font-size="28px" fill="#495057" text-anchor="start" style="white-space: pre;" direction="ltr">-  clicks detected</text></g><g transform="translate(331.921875 227.7421875) rotate(0 75 12.5)"><text x="0" y="18" font-family="Virgil" font-size="20px" fill="#495057" text-anchor="start" style="white-space: pre;" direction="ltr">Your Component</text></g><g transform="translate(26.3125 284.87109375) rotate(0 77.5 12.5)"><text x="0" y="18" font-family="Virgil" font-size="20px" fill="#495057" text-anchor="start" style="white-space: pre;" direction="ltr">Browser Window</text></g></svg>